<mxfile host="app.diagrams.net" modified="2023-10-26T07:17:28.047Z" agent="Mozilla/5.0 (Windows NT 10.0; Win64; x64) AppleWebKit/537.36 (KHTML, like Gecko) Chrome/118.0.0.0 Safari/537.36" etag="2WKHEMF8C-KdtNOY-xfC" version="22.0.8" type="github">
  <diagram name="Page-1" id="o0DM0_MiCbaJy6bLGhnn">
    <mxGraphModel dx="1501" dy="1057" grid="1" gridSize="10" guides="1" tooltips="1" connect="1" arrows="1" fold="1" page="1" pageScale="1" pageWidth="827" pageHeight="1169" math="0" shadow="0">
      <root>
        <mxCell id="0" />
        <mxCell id="1" parent="0" />
        <mxCell id="vdYyiGhlFjjqDIYG_Mna-1" value="Member" style="rounded=0;whiteSpace=wrap;html=1;" vertex="1" parent="1">
          <mxGeometry x="340" y="340" width="120" height="60" as="geometry" />
        </mxCell>
        <mxCell id="vdYyiGhlFjjqDIYG_Mna-2" value="MemberId" style="ellipse;whiteSpace=wrap;html=1;fontStyle=4" vertex="1" parent="1">
          <mxGeometry x="200" y="310" width="120" height="80" as="geometry" />
        </mxCell>
        <mxCell id="vdYyiGhlFjjqDIYG_Mna-4" value="name" style="ellipse;whiteSpace=wrap;html=1;" vertex="1" parent="1">
          <mxGeometry x="280" y="250" width="120" height="80" as="geometry" />
        </mxCell>
        <mxCell id="vdYyiGhlFjjqDIYG_Mna-5" value="home address" style="ellipse;whiteSpace=wrap;html=1;" vertex="1" parent="1">
          <mxGeometry x="400" y="250" width="120" height="80" as="geometry" />
        </mxCell>
        <mxCell id="vdYyiGhlFjjqDIYG_Mna-6" value="phone numbers" style="ellipse;whiteSpace=wrap;html=1;sketch=1;curveFitting=1;jiggle=2;" vertex="1" parent="1">
          <mxGeometry x="480" y="310" width="120" height="80" as="geometry" />
        </mxCell>
        <mxCell id="vdYyiGhlFjjqDIYG_Mna-7" value="Sellers" style="rounded=0;whiteSpace=wrap;html=1;" vertex="1" parent="1">
          <mxGeometry x="200" y="530" width="120" height="60" as="geometry" />
        </mxCell>
        <mxCell id="vdYyiGhlFjjqDIYG_Mna-8" value="Buyers" style="rounded=0;whiteSpace=wrap;html=1;" vertex="1" parent="1">
          <mxGeometry x="490" y="530" width="120" height="60" as="geometry" />
        </mxCell>
        <mxCell id="vdYyiGhlFjjqDIYG_Mna-9" value="" style="endArrow=none;html=1;rounded=0;" edge="1" parent="1" source="vdYyiGhlFjjqDIYG_Mna-7" target="vdYyiGhlFjjqDIYG_Mna-10">
          <mxGeometry width="50" height="50" relative="1" as="geometry">
            <mxPoint x="370" y="570" as="sourcePoint" />
            <mxPoint x="420" y="520" as="targetPoint" />
          </mxGeometry>
        </mxCell>
        <mxCell id="vdYyiGhlFjjqDIYG_Mna-10" value="O" style="ellipse;whiteSpace=wrap;html=1;aspect=fixed;" vertex="1" parent="1">
          <mxGeometry x="384" y="470" width="30" height="30" as="geometry" />
        </mxCell>
        <mxCell id="vdYyiGhlFjjqDIYG_Mna-11" value="" style="endArrow=none;html=1;rounded=0;exitX=1;exitY=0.5;exitDx=0;exitDy=0;" edge="1" parent="1" source="vdYyiGhlFjjqDIYG_Mna-10" target="vdYyiGhlFjjqDIYG_Mna-8">
          <mxGeometry width="50" height="50" relative="1" as="geometry">
            <mxPoint x="370" y="570" as="sourcePoint" />
            <mxPoint x="420" y="520" as="targetPoint" />
          </mxGeometry>
        </mxCell>
        <mxCell id="vdYyiGhlFjjqDIYG_Mna-12" value="" style="endArrow=none;html=1;rounded=0;entryX=0.5;entryY=0;entryDx=0;entryDy=0;" edge="1" parent="1" source="vdYyiGhlFjjqDIYG_Mna-1" target="vdYyiGhlFjjqDIYG_Mna-10">
          <mxGeometry width="50" height="50" relative="1" as="geometry">
            <mxPoint x="424" y="495" as="sourcePoint" />
            <mxPoint x="506" y="540" as="targetPoint" />
          </mxGeometry>
        </mxCell>
        <mxCell id="vdYyiGhlFjjqDIYG_Mna-13" value="delivery address" style="ellipse;whiteSpace=wrap;html=1;" vertex="1" parent="1">
          <mxGeometry x="630" y="535" width="100" height="50" as="geometry" />
        </mxCell>
        <mxCell id="vdYyiGhlFjjqDIYG_Mna-14" value="bank acc number" style="ellipse;whiteSpace=wrap;html=1;" vertex="1" parent="1">
          <mxGeometry x="90" y="500" width="100" height="50" as="geometry" />
        </mxCell>
        <mxCell id="vdYyiGhlFjjqDIYG_Mna-15" value="bank name" style="ellipse;whiteSpace=wrap;html=1;" vertex="1" parent="1">
          <mxGeometry x="90" y="560" width="100" height="50" as="geometry" />
        </mxCell>
        <mxCell id="vdYyiGhlFjjqDIYG_Mna-16" value="Items for sale" style="rounded=0;whiteSpace=wrap;html=1;" vertex="1" parent="1">
          <mxGeometry x="200" y="730" width="120" height="60" as="geometry" />
        </mxCell>
        <mxCell id="vdYyiGhlFjjqDIYG_Mna-17" value="&lt;u&gt;UniqueID&lt;/u&gt;" style="ellipse;whiteSpace=wrap;html=1;" vertex="1" parent="1">
          <mxGeometry x="60" y="730" width="100" height="50" as="geometry" />
        </mxCell>
        <mxCell id="vdYyiGhlFjjqDIYG_Mna-18" value="name" style="ellipse;whiteSpace=wrap;html=1;" vertex="1" parent="1">
          <mxGeometry x="100" y="680" width="100" height="50" as="geometry" />
        </mxCell>
        <mxCell id="vdYyiGhlFjjqDIYG_Mna-19" value="end date" style="ellipse;whiteSpace=wrap;html=1;" vertex="1" parent="1">
          <mxGeometry x="90" y="780" width="100" height="50" as="geometry" />
        </mxCell>
        <mxCell id="vdYyiGhlFjjqDIYG_Mna-20" value="starting price" style="ellipse;whiteSpace=wrap;html=1;" vertex="1" parent="1">
          <mxGeometry x="-10" y="780" width="100" height="50" as="geometry" />
        </mxCell>
        <mxCell id="vdYyiGhlFjjqDIYG_Mna-21" value="final price" style="ellipse;whiteSpace=wrap;html=1;" vertex="1" parent="1">
          <mxGeometry y="685" width="100" height="50" as="geometry" />
        </mxCell>
        <mxCell id="vdYyiGhlFjjqDIYG_Mna-22" value="start date" style="ellipse;whiteSpace=wrap;html=1;" vertex="1" parent="1">
          <mxGeometry x="-40" y="730" width="100" height="50" as="geometry" />
        </mxCell>
        <mxCell id="vdYyiGhlFjjqDIYG_Mna-24" value="Subcategory" style="rounded=0;whiteSpace=wrap;html=1;" vertex="1" parent="1">
          <mxGeometry x="210" y="1060" width="120" height="60" as="geometry" />
        </mxCell>
        <mxCell id="vdYyiGhlFjjqDIYG_Mna-26" value="&lt;u&gt;SubID&lt;/u&gt;" style="ellipse;whiteSpace=wrap;html=1;" vertex="1" parent="1">
          <mxGeometry x="100" y="1090" width="100" height="50" as="geometry" />
        </mxCell>
        <mxCell id="vdYyiGhlFjjqDIYG_Mna-27" value="name" style="ellipse;whiteSpace=wrap;html=1;" vertex="1" parent="1">
          <mxGeometry x="100" y="1040" width="100" height="50" as="geometry" />
        </mxCell>
        <mxCell id="vdYyiGhlFjjqDIYG_Mna-28" value="Category" style="rounded=0;whiteSpace=wrap;html=1;" vertex="1" parent="1">
          <mxGeometry x="210" y="920" width="120" height="60" as="geometry" />
        </mxCell>
        <mxCell id="vdYyiGhlFjjqDIYG_Mna-29" value="name" style="ellipse;whiteSpace=wrap;html=1;" vertex="1" parent="1">
          <mxGeometry x="100" y="900" width="100" height="50" as="geometry" />
        </mxCell>
        <mxCell id="vdYyiGhlFjjqDIYG_Mna-30" value="&lt;u&gt;CatId&lt;/u&gt;" style="ellipse;whiteSpace=wrap;html=1;" vertex="1" parent="1">
          <mxGeometry x="100" y="950" width="100" height="50" as="geometry" />
        </mxCell>
        <mxCell id="vdYyiGhlFjjqDIYG_Mna-32" value="Bid" style="rounded=0;whiteSpace=wrap;html=1;" vertex="1" parent="1">
          <mxGeometry x="740" y="735" width="120" height="60" as="geometry" />
        </mxCell>
        <mxCell id="vdYyiGhlFjjqDIYG_Mna-33" value="price" style="ellipse;whiteSpace=wrap;html=1;" vertex="1" parent="1">
          <mxGeometry x="870" y="690" width="100" height="50" as="geometry" />
        </mxCell>
        <mxCell id="vdYyiGhlFjjqDIYG_Mna-34" value="time" style="ellipse;whiteSpace=wrap;html=1;" vertex="1" parent="1">
          <mxGeometry x="900" y="740" width="100" height="50" as="geometry" />
        </mxCell>
        <mxCell id="vdYyiGhlFjjqDIYG_Mna-35" value="date" style="ellipse;whiteSpace=wrap;html=1;" vertex="1" parent="1">
          <mxGeometry x="870" y="790" width="100" height="50" as="geometry" />
        </mxCell>
        <mxCell id="vdYyiGhlFjjqDIYG_Mna-37" value="Auction" style="rounded=0;whiteSpace=wrap;html=1;" vertex="1" parent="1">
          <mxGeometry x="490" y="735" width="120" height="60" as="geometry" />
        </mxCell>
        <mxCell id="vdYyiGhlFjjqDIYG_Mna-38" value="highest bid" style="ellipse;whiteSpace=wrap;html=1;" vertex="1" parent="1">
          <mxGeometry x="630" y="930" width="90" height="50" as="geometry" />
        </mxCell>
        <mxCell id="vdYyiGhlFjjqDIYG_Mna-39" value="transaction" style="rounded=0;whiteSpace=wrap;html=1;" vertex="1" parent="1">
          <mxGeometry x="483" y="920" width="120" height="60" as="geometry" />
        </mxCell>
        <mxCell id="vdYyiGhlFjjqDIYG_Mna-40" value="date" style="ellipse;whiteSpace=wrap;html=1;" vertex="1" parent="1">
          <mxGeometry x="623" y="990" width="100" height="50" as="geometry" />
        </mxCell>
        <mxCell id="vdYyiGhlFjjqDIYG_Mna-41" value="status" style="ellipse;whiteSpace=wrap;html=1;" vertex="1" parent="1">
          <mxGeometry x="598" y="840" width="100" height="50" as="geometry" />
        </mxCell>
        <mxCell id="vdYyiGhlFjjqDIYG_Mna-42" value="rating" style="ellipse;whiteSpace=wrap;html=1;" vertex="1" parent="1">
          <mxGeometry x="523" y="990" width="100" height="50" as="geometry" />
        </mxCell>
        <mxCell id="vdYyiGhlFjjqDIYG_Mna-43" value="comment" style="ellipse;whiteSpace=wrap;html=1;" vertex="1" parent="1">
          <mxGeometry x="423" y="990" width="100" height="50" as="geometry" />
        </mxCell>
        <mxCell id="vdYyiGhlFjjqDIYG_Mna-44" value="" style="rhombus;whiteSpace=wrap;html=1;" vertex="1" parent="1">
          <mxGeometry x="525" y="650" width="50" height="50" as="geometry" />
        </mxCell>
        <mxCell id="vdYyiGhlFjjqDIYG_Mna-45" value="" style="endArrow=none;html=1;rounded=0;exitX=0.5;exitY=1;exitDx=0;exitDy=0;entryX=0.5;entryY=0;entryDx=0;entryDy=0;" edge="1" parent="1" source="vdYyiGhlFjjqDIYG_Mna-8" target="vdYyiGhlFjjqDIYG_Mna-44">
          <mxGeometry width="50" height="50" relative="1" as="geometry">
            <mxPoint x="424" y="495" as="sourcePoint" />
            <mxPoint x="506" y="540" as="targetPoint" />
          </mxGeometry>
        </mxCell>
        <mxCell id="vdYyiGhlFjjqDIYG_Mna-46" value="" style="endArrow=none;html=1;rounded=0;exitX=0.5;exitY=1;exitDx=0;exitDy=0;entryX=0.5;entryY=0;entryDx=0;entryDy=0;" edge="1" parent="1" source="vdYyiGhlFjjqDIYG_Mna-44" target="vdYyiGhlFjjqDIYG_Mna-37">
          <mxGeometry width="50" height="50" relative="1" as="geometry">
            <mxPoint x="560" y="600" as="sourcePoint" />
            <mxPoint x="560" y="660" as="targetPoint" />
          </mxGeometry>
        </mxCell>
        <mxCell id="vdYyiGhlFjjqDIYG_Mna-47" value="" style="rhombus;whiteSpace=wrap;html=1;" vertex="1" parent="1">
          <mxGeometry x="525" y="840" width="50" height="50" as="geometry" />
        </mxCell>
        <mxCell id="vdYyiGhlFjjqDIYG_Mna-48" value="" style="endArrow=none;html=1;rounded=0;exitX=0.5;exitY=1;exitDx=0;exitDy=0;entryX=0.5;entryY=0;entryDx=0;entryDy=0;" edge="1" parent="1" source="vdYyiGhlFjjqDIYG_Mna-37" target="vdYyiGhlFjjqDIYG_Mna-47">
          <mxGeometry width="50" height="50" relative="1" as="geometry">
            <mxPoint x="560" y="600" as="sourcePoint" />
            <mxPoint x="560" y="660" as="targetPoint" />
          </mxGeometry>
        </mxCell>
        <mxCell id="vdYyiGhlFjjqDIYG_Mna-49" value="" style="endArrow=none;html=1;rounded=0;" edge="1" parent="1" source="vdYyiGhlFjjqDIYG_Mna-39" target="vdYyiGhlFjjqDIYG_Mna-47">
          <mxGeometry width="50" height="50" relative="1" as="geometry">
            <mxPoint x="560" y="805" as="sourcePoint" />
            <mxPoint x="550" y="880" as="targetPoint" />
          </mxGeometry>
        </mxCell>
        <mxCell id="vdYyiGhlFjjqDIYG_Mna-50" value="" style="endArrow=none;html=1;rounded=0;entryX=0;entryY=0.5;entryDx=0;entryDy=0;exitX=1;exitY=0.5;exitDx=0;exitDy=0;" edge="1" parent="1" source="vdYyiGhlFjjqDIYG_Mna-37" target="vdYyiGhlFjjqDIYG_Mna-52">
          <mxGeometry width="50" height="50" relative="1" as="geometry">
            <mxPoint x="556" y="930" as="sourcePoint" />
            <mxPoint x="560" y="890" as="targetPoint" />
          </mxGeometry>
        </mxCell>
        <mxCell id="vdYyiGhlFjjqDIYG_Mna-51" value="" style="endArrow=none;html=1;rounded=0;entryX=0.5;entryY=1;entryDx=0;entryDy=0;exitX=0.5;exitY=0;exitDx=0;exitDy=0;" edge="1" parent="1" source="vdYyiGhlFjjqDIYG_Mna-57" target="vdYyiGhlFjjqDIYG_Mna-7">
          <mxGeometry width="50" height="50" relative="1" as="geometry">
            <mxPoint x="-160" y="435" as="sourcePoint" />
            <mxPoint x="358" y="700" as="targetPoint" />
          </mxGeometry>
        </mxCell>
        <mxCell id="vdYyiGhlFjjqDIYG_Mna-52" value="" style="rhombus;whiteSpace=wrap;html=1;" vertex="1" parent="1">
          <mxGeometry x="648" y="740" width="50" height="50" as="geometry" />
        </mxCell>
        <mxCell id="vdYyiGhlFjjqDIYG_Mna-53" value="" style="endArrow=none;html=1;rounded=0;entryX=0;entryY=0.5;entryDx=0;entryDy=0;" edge="1" parent="1" source="vdYyiGhlFjjqDIYG_Mna-52" target="vdYyiGhlFjjqDIYG_Mna-32">
          <mxGeometry width="50" height="50" relative="1" as="geometry">
            <mxPoint x="690" y="765" as="sourcePoint" />
            <mxPoint x="658" y="775" as="targetPoint" />
          </mxGeometry>
        </mxCell>
        <mxCell id="vdYyiGhlFjjqDIYG_Mna-54" value="" style="endArrow=none;html=1;rounded=0;" edge="1" parent="1" source="vdYyiGhlFjjqDIYG_Mna-59" target="vdYyiGhlFjjqDIYG_Mna-28">
          <mxGeometry width="50" height="50" relative="1" as="geometry">
            <mxPoint x="270" y="740" as="sourcePoint" />
            <mxPoint x="280" y="830" as="targetPoint" />
          </mxGeometry>
        </mxCell>
        <mxCell id="vdYyiGhlFjjqDIYG_Mna-55" value="" style="endArrow=none;html=1;rounded=0;exitX=0.5;exitY=1;exitDx=0;exitDy=0;" edge="1" parent="1" source="vdYyiGhlFjjqDIYG_Mna-61" target="vdYyiGhlFjjqDIYG_Mna-24">
          <mxGeometry width="50" height="50" relative="1" as="geometry">
            <mxPoint x="272" y="800" as="sourcePoint" />
            <mxPoint x="278" y="930" as="targetPoint" />
          </mxGeometry>
        </mxCell>
        <mxCell id="vdYyiGhlFjjqDIYG_Mna-56" value="" style="endArrow=none;html=1;rounded=0;exitX=1;exitY=0.5;exitDx=0;exitDy=0;" edge="1" parent="1" source="vdYyiGhlFjjqDIYG_Mna-87" target="vdYyiGhlFjjqDIYG_Mna-37">
          <mxGeometry width="50" height="50" relative="1" as="geometry">
            <mxPoint x="280" y="990" as="sourcePoint" />
            <mxPoint x="280" y="1070" as="targetPoint" />
          </mxGeometry>
        </mxCell>
        <mxCell id="vdYyiGhlFjjqDIYG_Mna-58" value="" style="endArrow=none;html=1;rounded=0;entryX=0.5;entryY=1;entryDx=0;entryDy=0;exitX=0.5;exitY=0;exitDx=0;exitDy=0;" edge="1" parent="1" source="vdYyiGhlFjjqDIYG_Mna-16" target="vdYyiGhlFjjqDIYG_Mna-57">
          <mxGeometry width="50" height="50" relative="1" as="geometry">
            <mxPoint x="260" y="730" as="sourcePoint" />
            <mxPoint x="260" y="590" as="targetPoint" />
          </mxGeometry>
        </mxCell>
        <mxCell id="vdYyiGhlFjjqDIYG_Mna-57" value="" style="rhombus;whiteSpace=wrap;html=1;" vertex="1" parent="1">
          <mxGeometry x="235" y="635" width="50" height="50" as="geometry" />
        </mxCell>
        <mxCell id="vdYyiGhlFjjqDIYG_Mna-60" value="" style="endArrow=none;html=1;rounded=0;" edge="1" parent="1" source="vdYyiGhlFjjqDIYG_Mna-16" target="vdYyiGhlFjjqDIYG_Mna-59">
          <mxGeometry width="50" height="50" relative="1" as="geometry">
            <mxPoint x="262" y="790" as="sourcePoint" />
            <mxPoint x="268" y="920" as="targetPoint" />
          </mxGeometry>
        </mxCell>
        <mxCell id="vdYyiGhlFjjqDIYG_Mna-59" value="" style="rhombus;whiteSpace=wrap;html=1;" vertex="1" parent="1">
          <mxGeometry x="245" y="840" width="50" height="50" as="geometry" />
        </mxCell>
        <mxCell id="vdYyiGhlFjjqDIYG_Mna-62" value="" style="endArrow=none;html=1;rounded=0;exitX=0.5;exitY=1;exitDx=0;exitDy=0;" edge="1" parent="1" source="vdYyiGhlFjjqDIYG_Mna-28" target="vdYyiGhlFjjqDIYG_Mna-61">
          <mxGeometry width="50" height="50" relative="1" as="geometry">
            <mxPoint x="270" y="980" as="sourcePoint" />
            <mxPoint x="270" y="1060" as="targetPoint" />
          </mxGeometry>
        </mxCell>
        <mxCell id="vdYyiGhlFjjqDIYG_Mna-61" value="" style="rhombus;whiteSpace=wrap;html=1;" vertex="1" parent="1">
          <mxGeometry x="245" y="1000" width="50" height="50" as="geometry" />
        </mxCell>
        <mxCell id="vdYyiGhlFjjqDIYG_Mna-64" value="" style="endArrow=none;html=1;rounded=0;exitX=0;exitY=0.5;exitDx=0;exitDy=0;" edge="1" parent="1" source="vdYyiGhlFjjqDIYG_Mna-7" target="vdYyiGhlFjjqDIYG_Mna-14">
          <mxGeometry width="50" height="50" relative="1" as="geometry">
            <mxPoint x="326" y="540" as="sourcePoint" />
            <mxPoint x="396" y="502" as="targetPoint" />
          </mxGeometry>
        </mxCell>
        <mxCell id="vdYyiGhlFjjqDIYG_Mna-65" value="" style="endArrow=none;html=1;rounded=0;exitX=0;exitY=0.5;exitDx=0;exitDy=0;" edge="1" parent="1" source="vdYyiGhlFjjqDIYG_Mna-7" target="vdYyiGhlFjjqDIYG_Mna-15">
          <mxGeometry width="50" height="50" relative="1" as="geometry">
            <mxPoint x="210" y="570" as="sourcePoint" />
            <mxPoint x="183" y="554" as="targetPoint" />
          </mxGeometry>
        </mxCell>
        <mxCell id="vdYyiGhlFjjqDIYG_Mna-66" value="" style="endArrow=none;html=1;rounded=0;" edge="1" parent="1" source="vdYyiGhlFjjqDIYG_Mna-18" target="vdYyiGhlFjjqDIYG_Mna-16">
          <mxGeometry width="50" height="50" relative="1" as="geometry">
            <mxPoint x="210" y="570" as="sourcePoint" />
            <mxPoint x="189" y="579" as="targetPoint" />
          </mxGeometry>
        </mxCell>
        <mxCell id="vdYyiGhlFjjqDIYG_Mna-67" value="" style="endArrow=none;html=1;rounded=0;" edge="1" parent="1" source="vdYyiGhlFjjqDIYG_Mna-16" target="vdYyiGhlFjjqDIYG_Mna-17">
          <mxGeometry width="50" height="50" relative="1" as="geometry">
            <mxPoint x="196" y="732" as="sourcePoint" />
            <mxPoint x="210" y="740" as="targetPoint" />
          </mxGeometry>
        </mxCell>
        <mxCell id="vdYyiGhlFjjqDIYG_Mna-68" value="" style="endArrow=none;html=1;rounded=0;exitX=1;exitY=0;exitDx=0;exitDy=0;" edge="1" parent="1" source="vdYyiGhlFjjqDIYG_Mna-19" target="vdYyiGhlFjjqDIYG_Mna-16">
          <mxGeometry width="50" height="50" relative="1" as="geometry">
            <mxPoint x="210" y="768" as="sourcePoint" />
            <mxPoint x="170" y="766" as="targetPoint" />
          </mxGeometry>
        </mxCell>
        <mxCell id="vdYyiGhlFjjqDIYG_Mna-69" value="" style="endArrow=none;html=1;rounded=0;" edge="1" parent="1" source="vdYyiGhlFjjqDIYG_Mna-1" target="vdYyiGhlFjjqDIYG_Mna-2">
          <mxGeometry width="50" height="50" relative="1" as="geometry">
            <mxPoint x="186" y="798" as="sourcePoint" />
            <mxPoint x="210" y="790" as="targetPoint" />
          </mxGeometry>
        </mxCell>
        <mxCell id="vdYyiGhlFjjqDIYG_Mna-70" value="" style="endArrow=none;html=1;rounded=0;entryX=0.25;entryY=0;entryDx=0;entryDy=0;" edge="1" parent="1" source="vdYyiGhlFjjqDIYG_Mna-4" target="vdYyiGhlFjjqDIYG_Mna-1">
          <mxGeometry width="50" height="50" relative="1" as="geometry">
            <mxPoint x="350" y="371" as="sourcePoint" />
            <mxPoint x="329" y="368" as="targetPoint" />
          </mxGeometry>
        </mxCell>
        <mxCell id="vdYyiGhlFjjqDIYG_Mna-71" value="" style="endArrow=none;html=1;rounded=0;" edge="1" parent="1" source="vdYyiGhlFjjqDIYG_Mna-5" target="vdYyiGhlFjjqDIYG_Mna-1">
          <mxGeometry width="50" height="50" relative="1" as="geometry">
            <mxPoint x="372" y="337" as="sourcePoint" />
            <mxPoint x="380" y="350" as="targetPoint" />
          </mxGeometry>
        </mxCell>
        <mxCell id="vdYyiGhlFjjqDIYG_Mna-72" value="" style="endArrow=none;html=1;rounded=0;" edge="1" parent="1" source="vdYyiGhlFjjqDIYG_Mna-6" target="vdYyiGhlFjjqDIYG_Mna-1">
          <mxGeometry width="50" height="50" relative="1" as="geometry">
            <mxPoint x="443" y="336" as="sourcePoint" />
            <mxPoint x="432" y="350" as="targetPoint" />
          </mxGeometry>
        </mxCell>
        <mxCell id="vdYyiGhlFjjqDIYG_Mna-73" value="" style="endArrow=none;html=1;rounded=0;entryX=0;entryY=0;entryDx=0;entryDy=0;" edge="1" parent="1" source="vdYyiGhlFjjqDIYG_Mna-8" target="vdYyiGhlFjjqDIYG_Mna-13">
          <mxGeometry width="50" height="50" relative="1" as="geometry">
            <mxPoint x="491" y="368" as="sourcePoint" />
            <mxPoint x="470" y="371" as="targetPoint" />
          </mxGeometry>
        </mxCell>
        <mxCell id="vdYyiGhlFjjqDIYG_Mna-74" value="" style="endArrow=none;html=1;rounded=0;entryX=0;entryY=0.5;entryDx=0;entryDy=0;" edge="1" parent="1" source="vdYyiGhlFjjqDIYG_Mna-32" target="vdYyiGhlFjjqDIYG_Mna-33">
          <mxGeometry width="50" height="50" relative="1" as="geometry">
            <mxPoint x="620" y="559" as="sourcePoint" />
            <mxPoint x="654" y="553" as="targetPoint" />
          </mxGeometry>
        </mxCell>
        <mxCell id="vdYyiGhlFjjqDIYG_Mna-75" value="" style="endArrow=none;html=1;rounded=0;" edge="1" parent="1" source="vdYyiGhlFjjqDIYG_Mna-32" target="vdYyiGhlFjjqDIYG_Mna-34">
          <mxGeometry width="50" height="50" relative="1" as="geometry">
            <mxPoint x="840" y="760" as="sourcePoint" />
            <mxPoint x="880" y="725" as="targetPoint" />
          </mxGeometry>
        </mxCell>
        <mxCell id="vdYyiGhlFjjqDIYG_Mna-76" value="" style="endArrow=none;html=1;rounded=0;" edge="1" parent="1" source="vdYyiGhlFjjqDIYG_Mna-32" target="vdYyiGhlFjjqDIYG_Mna-35">
          <mxGeometry width="50" height="50" relative="1" as="geometry">
            <mxPoint x="870" y="775" as="sourcePoint" />
            <mxPoint x="910" y="775" as="targetPoint" />
          </mxGeometry>
        </mxCell>
        <mxCell id="vdYyiGhlFjjqDIYG_Mna-77" value="" style="endArrow=none;html=1;rounded=0;" edge="1" parent="1" source="vdYyiGhlFjjqDIYG_Mna-39" target="vdYyiGhlFjjqDIYG_Mna-38">
          <mxGeometry width="50" height="50" relative="1" as="geometry">
            <mxPoint x="870" y="800" as="sourcePoint" />
            <mxPoint x="892" y="809" as="targetPoint" />
          </mxGeometry>
        </mxCell>
        <mxCell id="vdYyiGhlFjjqDIYG_Mna-78" value="" style="endArrow=none;html=1;rounded=0;" edge="1" parent="1" source="vdYyiGhlFjjqDIYG_Mna-47" target="vdYyiGhlFjjqDIYG_Mna-41">
          <mxGeometry width="50" height="50" relative="1" as="geometry">
            <mxPoint x="613" y="944" as="sourcePoint" />
            <mxPoint x="642" y="936" as="targetPoint" />
          </mxGeometry>
        </mxCell>
        <mxCell id="vdYyiGhlFjjqDIYG_Mna-79" value="" style="endArrow=none;html=1;rounded=0;" edge="1" parent="1" source="vdYyiGhlFjjqDIYG_Mna-39" target="vdYyiGhlFjjqDIYG_Mna-40">
          <mxGeometry width="50" height="50" relative="1" as="geometry">
            <mxPoint x="613" y="967" as="sourcePoint" />
            <mxPoint x="634" y="970" as="targetPoint" />
          </mxGeometry>
        </mxCell>
        <mxCell id="vdYyiGhlFjjqDIYG_Mna-80" value="" style="endArrow=none;html=1;rounded=0;exitX=0.75;exitY=1;exitDx=0;exitDy=0;" edge="1" parent="1" source="vdYyiGhlFjjqDIYG_Mna-39" target="vdYyiGhlFjjqDIYG_Mna-42">
          <mxGeometry width="50" height="50" relative="1" as="geometry">
            <mxPoint x="613" y="990" as="sourcePoint" />
            <mxPoint x="647" y="1007" as="targetPoint" />
          </mxGeometry>
        </mxCell>
        <mxCell id="vdYyiGhlFjjqDIYG_Mna-81" value="" style="endArrow=none;html=1;rounded=0;" edge="1" parent="1" source="vdYyiGhlFjjqDIYG_Mna-39" target="vdYyiGhlFjjqDIYG_Mna-43">
          <mxGeometry width="50" height="50" relative="1" as="geometry">
            <mxPoint x="583" y="990" as="sourcePoint" />
            <mxPoint x="583" y="1000" as="targetPoint" />
          </mxGeometry>
        </mxCell>
        <mxCell id="vdYyiGhlFjjqDIYG_Mna-82" value="" style="endArrow=none;html=1;rounded=0;" edge="1" parent="1" source="vdYyiGhlFjjqDIYG_Mna-28" target="vdYyiGhlFjjqDIYG_Mna-29">
          <mxGeometry width="50" height="50" relative="1" as="geometry">
            <mxPoint x="521" y="990" as="sourcePoint" />
            <mxPoint x="507" y="1003" as="targetPoint" />
          </mxGeometry>
        </mxCell>
        <mxCell id="vdYyiGhlFjjqDIYG_Mna-83" value="" style="endArrow=none;html=1;rounded=0;exitX=1;exitY=1;exitDx=0;exitDy=0;" edge="1" parent="1" source="vdYyiGhlFjjqDIYG_Mna-30" target="vdYyiGhlFjjqDIYG_Mna-28">
          <mxGeometry width="50" height="50" relative="1" as="geometry">
            <mxPoint x="220" y="947" as="sourcePoint" />
            <mxPoint x="206" y="944" as="targetPoint" />
          </mxGeometry>
        </mxCell>
        <mxCell id="vdYyiGhlFjjqDIYG_Mna-84" value="" style="endArrow=none;html=1;rounded=0;entryX=1;entryY=1;entryDx=0;entryDy=0;" edge="1" parent="1" source="vdYyiGhlFjjqDIYG_Mna-24" target="vdYyiGhlFjjqDIYG_Mna-27">
          <mxGeometry width="50" height="50" relative="1" as="geometry">
            <mxPoint x="196" y="1002" as="sourcePoint" />
            <mxPoint x="220" y="990" as="targetPoint" />
          </mxGeometry>
        </mxCell>
        <mxCell id="vdYyiGhlFjjqDIYG_Mna-85" value="" style="endArrow=none;html=1;rounded=0;" edge="1" parent="1" source="vdYyiGhlFjjqDIYG_Mna-26" target="vdYyiGhlFjjqDIYG_Mna-24">
          <mxGeometry width="50" height="50" relative="1" as="geometry">
            <mxPoint x="220" y="1095" as="sourcePoint" />
            <mxPoint x="196" y="1092" as="targetPoint" />
          </mxGeometry>
        </mxCell>
        <mxCell id="vdYyiGhlFjjqDIYG_Mna-88" value="" style="endArrow=none;html=1;rounded=0;exitX=1;exitY=0.5;exitDx=0;exitDy=0;" edge="1" parent="1" source="vdYyiGhlFjjqDIYG_Mna-16" target="vdYyiGhlFjjqDIYG_Mna-87">
          <mxGeometry width="50" height="50" relative="1" as="geometry">
            <mxPoint x="320" y="760" as="sourcePoint" />
            <mxPoint x="490" y="764" as="targetPoint" />
          </mxGeometry>
        </mxCell>
        <mxCell id="vdYyiGhlFjjqDIYG_Mna-87" value="" style="rhombus;whiteSpace=wrap;html=1;" vertex="1" parent="1">
          <mxGeometry x="375" y="740" width="50" height="50" as="geometry" />
        </mxCell>
        <mxCell id="vdYyiGhlFjjqDIYG_Mna-89" value="start price" style="ellipse;whiteSpace=wrap;html=1;" vertex="1" parent="1">
          <mxGeometry x="349" y="690" width="100" height="50" as="geometry" />
        </mxCell>
      </root>
    </mxGraphModel>
  </diagram>
</mxfile>
